<svg width="101" height="19" viewBox="0 0 101 19" fill="none" xmlns="http://www.w3.org/2000/svg">
<path d="M28.8183 3.95014L28.827 3.82116H28.9466V2.13229V2.04407L28.8644 2.01208C28.5509 1.89012 28.1735 1.84343 27.782 1.84343C26.2713 1.84343 25.0822 2.52137 24.4438 3.7087V2.15496V2.02598H24.3148H22.4237H22.2947V2.15496V13.7038V13.8328H22.4237H24.3148H24.4438V13.7038V7.79248C24.4438 6.45266 24.7606 5.47834 25.3315 4.83994C25.9002 4.20396 26.7389 3.88154 27.8274 3.88154C28.1213 3.88154 28.3981 3.89901 28.6887 3.93448V3.95014H28.8177H28.8183Z" fill="#101928" stroke="#101928" stroke-width="0.257966"/>
<path d="M40.8654 13.833H40.9943V13.7041V2.28419V2.15521V2.15461H40.8654V2.02622H38.9743H38.8453V2.15521V3.75872C38.0543 2.49068 36.5119 1.70647 34.7637 1.70647C31.5499 1.70647 29.2084 4.31101 29.2084 7.92934C29.2084 11.5476 31.5498 14.1528 34.7637 14.1528C36.5119 14.1528 38.0543 13.3686 38.8453 12.1005V13.7041V13.833H38.9743H40.8654ZM37.8862 4.90969L37.8862 4.9097L37.8876 4.91122C38.583 5.682 38.9354 6.69914 38.9354 7.92874C38.9354 9.15834 38.583 10.1755 37.8876 10.9463L37.8862 10.9478C37.2148 11.7162 36.3059 12.1135 35.1915 12.1135C34.0778 12.1135 33.168 11.7166 32.4733 10.947C31.7998 10.1758 31.4476 9.15801 31.4476 7.92874C31.4476 6.69947 31.7998 5.68169 32.4733 4.91047C33.168 4.14085 34.0778 3.74398 35.1915 3.74398C36.3059 3.74398 37.2148 4.14132 37.8862 4.90969Z" fill="#101928" stroke="#101928" stroke-width="0.257966"/>
<path d="M53.3282 2.15503V2.02605H53.1992H53.198H51.3069H51.1779V2.15503V8.70529C51.1779 9.62861 50.821 10.3978 50.2189 10.9375C49.6156 11.4781 48.7584 11.7948 47.7496 11.7948C46.8829 11.7948 46.2731 11.5619 45.8754 11.0876C45.4735 10.6082 45.2668 9.8574 45.2668 8.77389V2.15503V2.02605H45.1378H43.2467H43.1177V2.15503V9.23026C43.1177 10.7008 43.5005 11.8544 44.2242 12.6414C44.9492 13.4299 46.0004 13.8329 47.2998 13.8329C49.0027 13.8329 50.4128 13.1625 51.1785 11.9377V12.5853C51.1785 13.9703 50.8453 14.9903 50.2407 15.6631C49.6382 16.3337 48.7486 16.6788 47.5927 16.6788C46.2705 16.6788 44.9966 16.2098 44.0998 15.3889L43.9984 15.2961L43.9123 15.4031L42.8092 16.7728L42.7378 16.8615L42.8169 16.9433C43.9057 18.0708 45.6993 18.7175 47.638 18.7175C49.4202 18.7175 50.8483 18.1843 51.8298 17.1393C52.8102 16.0955 53.3282 14.559 53.3282 12.5859V2.15503Z" fill="#101928" stroke="#101928" stroke-width="0.257966"/>
<path d="M65.5103 13.8329H65.6393V13.7039V13.7033V6.30834C65.6393 4.86095 65.268 3.70762 64.5503 2.91495C63.831 2.12038 62.7796 1.70573 61.4573 1.70573C59.7607 1.70573 58.3714 2.37163 57.6239 3.58898V2.15447V2.02549H57.4949H55.6038H55.4748V2.15447V13.7039V13.8329H55.6038H57.4949H57.6239V13.7039V6.83391C57.6239 5.89828 57.976 5.12916 58.5694 4.59288C59.1641 4.05552 60.0098 3.74444 61.0075 3.74444C61.8856 3.74444 62.495 3.97748 62.8896 4.45125C63.2888 4.93043 63.4902 5.6811 63.4902 6.76531V13.7039V13.8329H63.6192H65.5103Z" fill="#101928" stroke="#101928" stroke-width="0.257966"/>
<path d="M79.0651 13.833H79.194V13.7041V2.28419V2.15521V2.15461H79.0651V2.02622H77.174H77.045V2.15521V3.75872C76.254 2.49068 74.7117 1.70647 72.9634 1.70647C69.7496 1.70647 67.4081 4.31101 67.4081 7.92934C67.4081 11.5476 69.7496 14.1528 72.9634 14.1528C74.7117 14.1528 76.254 13.3686 77.045 12.1005V13.7041V13.833H77.174H79.0651ZM76.0859 4.90969L76.0859 4.9097L76.0873 4.91122C76.7827 5.682 77.1351 6.69914 77.1351 7.92874C77.1351 9.15834 76.7827 10.1755 76.0873 10.9463L76.0859 10.9478C75.4145 11.7162 74.5056 12.1135 73.3912 12.1135C72.2775 12.1135 71.3677 11.7166 70.673 10.947C69.9995 10.1758 69.6473 9.15801 69.6473 7.92874C69.6473 6.69947 69.9995 5.68169 70.673 4.91047C71.3677 4.14085 72.2775 3.74398 73.3912 3.74398C74.5056 3.74398 75.4145 4.14132 76.0859 4.90969Z" fill="#101928" stroke="#101928" stroke-width="0.257966"/>
<path d="M87.7793 2.15503V2.02605H87.6504H85.7593H85.7581H85.6291V2.15503V9.39074C85.6291 10.7921 86.1308 11.9854 87.0172 12.828C87.9031 13.6702 89.1637 14.1532 90.6666 14.1532C92.1695 14.1532 93.4301 13.6702 94.316 12.828C95.2023 11.9854 95.7041 10.7921 95.7041 9.39074V2.15503V2.02605H95.5751H93.684H93.555V2.15503V9.2762C93.555 10.2103 93.2868 10.9149 92.8032 11.3865C92.3191 11.8586 91.6012 12.1145 90.6672 12.1145C89.7331 12.1145 89.0153 11.8586 88.5311 11.3865C88.0475 10.9149 87.7793 10.2103 87.7793 9.2762V2.15503Z" fill="#101928" stroke="#101928" stroke-width="0.257966"/>
<path d="M98.1092 2.02605H97.9802V2.15503V13.7045V13.8335H98.1092H100H100.129V13.7045V2.15503V2.02605H100H98.1092Z" fill="#101928" stroke="#101928" stroke-width="0.257966"/>
<path d="M13.9634 9.95782L12.9499 8.94426C12.9242 8.91861 12.9332 8.87566 12.966 8.86134C13.3239 8.70683 13.6586 8.50758 13.9634 8.27194C14.0726 8.18723 14.1776 8.09834 14.2784 8.00468C14.5725 7.73145 14.8308 7.42064 15.0456 7.07941C15.0462 7.07822 15.0468 7.07762 15.0474 7.07643C15.1774 6.86942 15.292 6.65108 15.3886 6.42379C15.6219 5.87495 15.7519 5.27182 15.7543 4.63827C15.7543 4.63827 15.7543 4.63768 15.7543 4.63708C15.7543 4.63112 15.7543 4.62515 15.7543 4.61918C15.7543 3.98623 15.6273 3.3837 15.397 2.83427C15.32 2.64993 15.2311 2.47156 15.1315 2.30035C15.1315 2.29915 15.1303 2.29856 15.1303 2.29796C14.6823 1.52839 14.0183 0.90081 13.2219 0.496937C13.2189 0.495147 13.2153 0.493357 13.2124 0.492164C12.5961 0.181355 11.5545 0.0047725 10.8184 0C10.8082 0 11.1453 0 11.1351 0C11.125 0 11.1154 0 11.1053 0H1.37596C0.615944 0 -0.000305176 0.616249 -0.000305176 1.37627V11.1897C-0.000305176 11.5077 0.0319092 11.8185 0.0933552 12.1186C0.0933552 12.1192 0.0933552 12.1198 0.0933552 12.121C0.207895 12.6805 0.423851 13.2037 0.720939 13.6696C0.720939 13.6708 0.722132 13.6714 0.722729 13.6726C1.22026 14.4523 1.94568 15.0728 2.80473 15.4396C2.80772 15.4408 2.8107 15.442 2.81368 15.4432C2.82024 15.4462 2.8274 15.4492 2.83396 15.4522C3.27602 15.6377 3.75267 15.7558 4.25199 15.7952C4.3731 15.8047 4.49479 15.8095 4.61828 15.8095C5.25541 15.8095 5.86212 15.6806 6.41394 15.4474C6.80349 15.2827 7.1662 15.0662 7.49312 14.8061C7.49371 14.8061 7.49431 14.8055 7.49491 14.8049C7.50087 14.8001 7.50744 14.7954 7.5134 14.79C7.51519 14.7888 7.51698 14.787 7.51877 14.7858C7.94173 14.444 8.30325 14.0294 8.58364 13.5605C8.98095 12.8965 9.21659 12.1251 9.23568 11.3001V11.2983C9.23627 11.2625 9.23687 11.2267 9.23687 11.1909C9.23687 11.1551 9.23687 11.1193 9.23568 11.0835V9.43404C9.23568 9.36305 9.32158 9.32726 9.37169 9.37737L13.5548 13.5605L14.5338 14.5394C14.9853 14.991 15.7567 14.6713 15.7567 14.0329V12.2653C15.7567 11.9384 15.6267 11.6246 15.3952 11.3932L13.9611 9.95902L13.9634 9.95782ZM11.1333 6.42379H6.72713C6.55473 6.42379 6.41453 6.56338 6.41453 6.73639V11.2285V11.2291C6.35786 12.489 5.09016 13.3051 3.92627 12.8177C3.29749 12.5547 2.87214 11.948 2.83396 11.2613V3.10988C2.83396 2.95955 2.95626 2.83725 3.10659 2.83725L6.87329 2.83487C6.87329 2.83487 6.87329 2.83606 6.87269 2.83666C7.66314 2.83666 8.47924 2.83666 9.23687 2.83666C9.94439 2.83666 10.6012 2.83666 11.1381 2.83785C12.1099 2.83904 12.9117 3.64798 12.9153 4.6168C12.9189 5.61007 12.1308 6.41007 11.1333 6.42438V6.42379Z" fill="#E8562E"/>
</svg>
