<svg width="16" height="16" viewBox="0 0 16 16" fill="none" xmlns="http://www.w3.org/2000/svg">
<path d="M13.9634 9.95782L12.9499 8.94426C12.9242 8.91861 12.9332 8.87566 12.966 8.86134C13.3239 8.70683 13.6586 8.50758 13.9634 8.27194C14.0726 8.18723 14.1776 8.09834 14.2784 8.00468C14.5725 7.73145 14.8308 7.42064 15.0456 7.07941C15.0462 7.07822 15.0468 7.07762 15.0474 7.07643C15.1774 6.86942 15.292 6.65108 15.3886 6.42379C15.6219 5.87495 15.7519 5.27182 15.7543 4.63827C15.7543 4.63827 15.7543 4.63768 15.7543 4.63708C15.7543 4.63112 15.7543 4.62515 15.7543 4.61918C15.7543 3.98623 15.6273 3.3837 15.397 2.83427C15.32 2.64993 15.2311 2.47156 15.1315 2.30035C15.1315 2.29915 15.1303 2.29856 15.1303 2.29796C14.6823 1.52839 14.0183 0.90081 13.2219 0.496937C13.2189 0.495147 13.2153 0.493357 13.2124 0.492164C12.5961 0.181355 11.5545 0.0047725 10.8184 0C10.8082 0 11.1453 0 11.1351 0C11.125 0 11.1154 0 11.1053 0H1.37596C0.615944 0 -0.000305176 0.616249 -0.000305176 1.37627V11.1897C-0.000305176 11.5077 0.0319092 11.8185 0.0933552 12.1186C0.0933552 12.1192 0.0933552 12.1198 0.0933552 12.121C0.207895 12.6805 0.423851 13.2037 0.720939 13.6696C0.720939 13.6708 0.722132 13.6714 0.722729 13.6726C1.22026 14.4523 1.94568 15.0728 2.80473 15.4396C2.80772 15.4408 2.8107 15.442 2.81368 15.4432C2.82024 15.4462 2.8274 15.4492 2.83396 15.4522C3.27602 15.6377 3.75267 15.7558 4.25199 15.7952C4.3731 15.8047 4.49479 15.8095 4.61828 15.8095C5.25541 15.8095 5.86212 15.6806 6.41394 15.4474C6.80349 15.2827 7.1662 15.0662 7.49312 14.8061C7.49371 14.8061 7.49431 14.8055 7.49491 14.8049C7.50087 14.8001 7.50744 14.7954 7.5134 14.79C7.51519 14.7888 7.51698 14.787 7.51877 14.7858C7.94173 14.444 8.30325 14.0294 8.58364 13.5605C8.98095 12.8965 9.21659 12.1251 9.23568 11.3001V11.2983C9.23627 11.2625 9.23687 11.2267 9.23687 11.1909C9.23687 11.1551 9.23687 11.1193 9.23568 11.0835V9.43404C9.23568 9.36305 9.32158 9.32726 9.37169 9.37737L13.5548 13.5605L14.5338 14.5394C14.9853 14.991 15.7567 14.6713 15.7567 14.0329V12.2653C15.7567 11.9384 15.6267 11.6246 15.3952 11.3932L13.9611 9.95902L13.9634 9.95782ZM11.1333 6.42379H6.72713C6.55473 6.42379 6.41453 6.56338 6.41453 6.73639V11.2285V11.2291C6.35786 12.489 5.09016 13.3051 3.92627 12.8177C3.29749 12.5547 2.87214 11.948 2.83396 11.2613V3.10988C2.83396 2.95955 2.95626 2.83725 3.10659 2.83725L6.87329 2.83487C6.87329 2.83487 6.87329 2.83606 6.87269 2.83666C7.66314 2.83666 8.47924 2.83666 9.23687 2.83666C9.94439 2.83666 10.6012 2.83666 11.1381 2.83785C12.1099 2.83904 12.9117 3.64798 12.9153 4.6168C12.9189 5.61007 12.1308 6.41007 11.1333 6.42438V6.42379Z" fill="#E8562E"/>
</svg>
